<svg width="24" height="24" viewBox="0 0 24 24" fill="none" xmlns="http://www.w3.org/2000/svg">
<path d="M11.9998 0.666656C18.2591 0.666656 23.3332 5.74076 23.3332 12C23.3332 18.2592 18.2591 23.3333 11.9998 23.3333C5.74061 23.3333 0.666504 18.2592 0.666504 12C0.666504 5.74076 5.74061 0.666656 11.9998 0.666656ZM11.9998 7.33332L11.9876 7.33344C11.9718 7.33372 11.9561 7.33457 11.9403 7.33597L11.9998 7.33332C11.9661 7.33332 11.9329 7.33583 11.9005 7.34067C11.8892 7.34241 11.8776 7.34446 11.866 7.34682C11.8513 7.34975 11.8369 7.35321 11.8226 7.35714C11.8122 7.36005 11.8019 7.36314 11.7917 7.36648C11.7786 7.37074 11.7655 7.37553 11.7525 7.38073C11.7406 7.38545 11.7291 7.39044 11.7177 7.39577C11.7039 7.40224 11.6903 7.40919 11.677 7.41657C11.6689 7.42099 11.6608 7.42573 11.6527 7.43065C11.6357 7.44114 11.6191 7.45232 11.6031 7.4642C11.5981 7.46783 11.5933 7.47151 11.5885 7.47527L11.5829 7.47978L11.5284 7.52858L7.86177 11.1953C7.60142 11.4556 7.60142 11.8777 7.86177 12.1381C8.12212 12.3984 8.54423 12.3984 8.80458 12.1381L11.3332 9.60932V16.3333C11.3332 16.7015 11.6316 17 11.9998 17C12.368 17 12.6665 16.7015 12.6665 16.3333V9.60932L15.1951 12.1381C15.4554 12.3984 15.8776 12.3984 16.1379 12.1381C16.3983 11.8777 16.3983 11.4556 16.1379 11.1953L12.4712 7.52858L12.4168 7.47978C12.4149 7.47824 12.4129 7.4767 12.411 7.47518L12.4712 7.52858C12.4476 7.50499 12.4227 7.48353 12.3967 7.46421C12.3806 7.45232 12.364 7.44114 12.3469 7.4307C12.3389 7.42573 12.3308 7.42099 12.3225 7.41644C12.3094 7.40919 12.2958 7.40224 12.2819 7.39576C12.2706 7.39044 12.259 7.38545 12.2474 7.38081C12.2342 7.37553 12.221 7.37074 12.2077 7.36635C12.1977 7.36314 12.1875 7.36005 12.1772 7.35722C12.1628 7.35321 12.1483 7.34975 12.1337 7.34677C12.1221 7.34446 12.1105 7.34241 12.0988 7.34067C12.0861 7.33872 12.073 7.33715 12.0597 7.33597C12.0438 7.33459 12.0283 7.33375 12.0127 7.33345C12.0084 7.33336 12.0041 7.33332 11.9998 7.33332Z" fill="#00BF9D"/>
</svg>
